<svg height="512" viewBox="0 0 448 512" width="448" xmlns="http://www.w3.org/2000/svg"><path d="m48 32c-26.5 0-48 21.5-48 48v352c0 26.5 21.5 48 48 48h352c26.5 0 48-21.5 48-48v-352c0-26.5-21.5-48-48-48zm176 64 160 160-160 160-160-160zm.01367 61.51953c-54.1574 0-98.07422 43.9189-98.07422 98.10547 0 54.15704 43.91682 98.04492 98.07422 98.04492 54.18658 0 98.04688-43.88751 98.04688-98.04492 0-54.18657-43.8603-98.10547-98.04688-98.10547zm-.01367 9.82031c48.6522 0 88.0918 39.43997 88.0918 88.0918 0 48.65075-39.43996 88.0918-88.0918 88.0918-48.65182 0-88.08984-39.44105-88.08984-88.0918 0-48.65219 39.43802-88.0918 88.08984-88.0918zm-59.11133 66.16211c-3.02385 0-5.95719.26864-8.89062.8086-2.93345.53885-5.03042.96037-6.34766 1.3789v10.26758h1.07813c2.0362-.86808 4.06989-1.64693 6.13671-2.15625 2.09598-.59719 3.89185-.89844 5.47852-.89844 3.47193 0 6.04901.44897 7.78516 1.34766 1.70516.86808 2.60351 2.51507 2.60351 4.82031v.26758c-3.86276.20965-7.42389.63027-10.77734 1.04883-3.29328.44916-6.16792 1.25703-8.5625 2.39453-2.3348 1.13751-4.13184 2.69522-5.41992 4.64063-1.25744 1.91589-1.88672 4.46156-1.88672 7.66406 0 3.86276 1.25877 6.97632 3.74414 9.52148 2.45474 2.48536 5.56773 3.80078 9.31054 3.80078 2.03584 0 3.59126-.14928 4.69922-.47851 1.16813-.23989 2.27536-.68823 3.47266-1.31641 1.22827-.62927 2.15579-1.16868 2.84375-1.79687a129.5972 129.5972 0 0 1 2.45508-2.00586v4.46093h13.29297l.00195-.00195v-28.94922c0-4.96965-1.67794-8.71129-5.06055-11.16601-3.35197-2.3946-8.65187-3.65235-15.95703-3.65235zm96.69727.08594c-2.42411 0-4.57813.538-6.46485 1.55664-1.9159 1.04962-3.98255 2.51523-6.13867 4.3418v-4.69922h-13.26172v42.48047h13.26368v-30.14649c.9574-.65845 1.97332-1.25642 3.02148-1.79492 1.04783-.47968 2.09711-.71875 3.20508-.71875 1.40801 0 2.51498.1789 3.35351.62696.77728.41853 1.34708 1.04869 1.76563 1.97656.38936.89834.5675 2.09708.6875 3.5332.0893 1.46672.11914 3.20417.11914 5.26953v21.25586h13.26172v-30.14648c1.16816-.77873 2.24635-1.43759 3.23437-1.88672 1.01718-.44812 2.00479-.62891 3.02344-.62891 1.40693 0 2.54497.18081 3.32227.62891.77873.41852 1.40774 1.04872 1.76757 1.97656.38937.89834.62805 2.09711.71875 3.5332.08907 1.46672.11914 3.2022.11914 5.26758v21.25391h13.23438v-27.63281c0-3.0534-.26915-5.4785-.89844-7.36524-.56799-1.88671-1.43725-3.50346-2.66406-4.88086-1.04816-1.22683-2.39367-2.18495-3.95117-2.84375-1.58813-.59754-3.35403-.95703-5.33008-.95703-2.3067 0-4.5794.62796-6.85547 1.91602-2.21594 1.28661-4.6404 3.11309-7.18555 5.47851-1.04821-2.48536-2.51493-4.31225-4.55078-5.53906-1.91588-1.22791-4.22218-1.85547-6.79687-1.85547zm-46.97071.00195c-3.11318 0-6.10706.41903-8.95117 1.28711-2.90428.83746-5.39046 2.15657-7.51562 3.92188-2.24547 1.82691-3.95022 4.16174-5.23828 7.00586-1.31724 2.905-1.91602 6.28747-1.91602 10.38867 0 3.74135.56834 7.06418 1.76563 9.84961 1.19729 2.75479 2.84385 5.06006 5 6.94531 2.15578 1.82657 4.67164 3.17501 7.54492 4.07227 2.90536.86916 6.16737 1.34765 9.66992 1.34765 1.85464 0 3.32148-.12085 4.45898-.33008 1.10797-.20928 2.3656-.38812 3.62305-.80664 1.07844-.26946 2.03543-.63015 3.02344-1.01953 1.01756-.44952 1.88554-.83728 2.63476-1.16797v-11.3164h-1.70507c-.38937.44769-.95863.95758-1.58789 1.49609-.62819.59862-1.40612 1.10799-2.33399 1.64649-.86807.50932-1.947.98758-3.17383 1.37695-1.28807.32926-2.78494.53906-4.46094.53906-3.32282 0-5.92825-1.04791-7.90429-3.11328-1.97605-2.096-2.99414-5.29802-2.99414-9.51953 0-3.9827.98789-7.15546 2.81445-9.49024 1.85464-2.3946 4.49044-3.5625 7.87305-3.5625 1.49589.00001 2.84411.2096 4.10156.56836 1.1375.41998 2.27588.77831 3.23437 1.37696.92786.48013 1.70431 1.01893 2.51368 1.67773.74776.5385 1.43731 1.10738 1.91601 1.61524h1.70703v-11.34766c-2.36542-1.1973-4.70099-2.06636-7.0664-2.57422-2.30381-.56804-4.69732-.86719-7.03321-.86719zm-42.00195 23.74219v8.83203c-.95848.92788-2.03552 1.70684-3.29297 2.18555-1.16667.59856-2.36603.77734-3.44336.77734-2.12517 0-3.71158-.32891-4.75976-1.07812-1.04781-.74775-1.61719-2.12551-1.61719-4.10156 0-1.31759.36072-2.39389 1.01953-3.23243.59864-.83854 1.49593-1.4368 2.66406-1.82617 1.31724-.50932 2.69315-.77815 4.04102-.92773 1.34786-.17901 3.1432-.39026 5.38867-.62891z"/></svg>