<svg height="512" viewBox="0 0 448 512" width="448" xmlns="http://www.w3.org/2000/svg"><path d="m48 32c-26.5 0-48 21.5-48 48v352c0 26.5 21.5 48 48 48h352c26.5 0 48-21.5 48-48v-352c0-26.5-21.5-48-48-48zm59.12695 64.003906c.77308.008256 1.54433.029239 2.3125.058594 8.45062.27344 17.16243 4.44002 19.31055 9.47852 2.52655 5.93756-.32551 9.76599-2.65625 13.99804-2.99468 5.44282-1.53593 10.88588 2.35742 15.41797 4.20543 4.93456 14.5423 15.54578 20.42774 21.82422 20.89845-15.84791 46.87518-25.36328 75.13086-25.36328 28.24109 0 54.21857 9.51629 75.10351 25.34961 5.88542-6.26275 16.22428-16.87595 20.42969-21.81055 3.89337-4.53209 5.3655-9.973 2.35742-15.40234-2.32935-4.24516-5.18309-8.07452-2.64453-14.01172 2.1361-5.02535 10.84621-9.20497 19.29687-9.478517 6.14501-.221306 12.50013.052972 18.04688 3.490235 7.33055 4.585312 10.41604 11.340442 10.57227 19.933592.11741 5.73049-2.5124 6.77065 3.88085 7.89063 7.96936 1.37993 14.30881 4.93404 15.85938 10.46875 1.54906 5.5602.76905 9.93528-1.35352 14.89648-3.46429 6.4319-6.47197 7.72051-12.08398 9.45117-4.8307 1.47179-13.33465.79548-20.63867-2.05664-1.66683-.65076-3.17751-1.70619-4.76563-2.55273-4.73993-2.55208-7.59041-2.05587-11.19726 1.79883-2.0708 2.23888-8.55395 8.09627-17.47266 16.54687 18.2038 21.66663 29.19141 49.56989 29.19141 80.06445 0 30.50768-10.98903 58.39784-29.19141 80.06446 8.9183 8.46263 15.4155 14.33601 17.48633 16.5625 3.60678 3.85323 6.45877 4.34915 11.19726 1.81054 1.58918-.85859 3.09912-1.91453 4.76563-2.5664 7.3171-2.85066 15.80605-3.52707 20.63672-2.06836 5.62542 1.74376 8.62013 3.03293 12.08398 9.46484 2.12151 4.96161 2.91682 9.33465 1.35938 14.89453-1.54909 5.53323-7.89093 9.08933-15.84571 10.47071-6.40676 1.11856-3.77634 2.16123-3.89257 7.89062-.15757 8.59315-3.24348 15.34973-10.56055 19.93359-5.54823 3.43743-11.91515 3.71166-18.06055 3.49024-8.45057-.26032-17.15989-4.45209-19.31054-9.47852-2.52509-5.92517.31237-9.7797 2.65625-14.01172 2.99466-5.4173 1.53785-10.86018-2.35547-15.40429-4.20508-4.92117-14.55796-15.54638-20.44336-21.82227-20.88532 15.8464-46.84892 25.36524-75.10352 25.36524-28.25568 0-54.2324-9.51884-75.13086-25.36524-5.88543 6.27589-16.22231 16.90079-20.42773 21.82227-3.89336 4.54411-5.35207 9.98699-2.35742 15.40429 2.33076 4.23201 5.1828 8.08655 2.65625 14.01172-2.14809 5.02533-10.85996 9.21867-19.31055 9.47852-6.14535.22126-12.511873-.05291-18.058594-3.49024-7.318576-4.58387-10.418122-11.34044-10.574219-19.93359-.103916-5.72939 2.527839-6.77206-3.878906-7.89062-7.969359-1.38138-14.29871-4.93748-15.861329-10.47071-1.54907-5.55872-.767117-9.9333 1.355469-14.89453 3.462794-6.43189 6.470072-7.72263 12.082031-9.46679 4.830707-1.45869 13.333279-.78034 20.650391 2.07031 1.666852.65041 3.177536 1.70437 4.765625 2.56445 4.738802 2.53857 7.577352 2.04466 11.197262-1.80859 2.08283-2.22646 8.56793-8.0997 17.47461-16.54883-18.19033-21.65424-29.193356-49.57044-29.193356-80.07813 0-30.49458 10.988156-58.39784 29.189456-80.06445-8.90522-8.45059-15.39016-14.30904-17.47266-16.5625-3.61881-3.85328-6.45738-4.33723-11.197265-1.78516-1.588124.83342-3.099129 1.88886-4.765625 2.55274-7.317493 2.83863-15.81971 3.52844-20.650391 2.05664-5.611985-1.73065-8.619264-3.03292-12.082031-9.46484-2.122978-4.94807-2.904934-9.33469-1.355469-14.89454 1.562587-5.52119 7.891471-9.08911 15.859375-10.45703 6.406414-1.11997 3.774969-2.16179 3.878907-7.90429.157127-8.57967 3.257106-15.3492 10.574218-19.919926 4.853385-3.019381 10.334521-3.606621 15.746091-3.548828zm116.88282 43.119144c-64.45265 0-116.88672 52.43354-116.88672 116.87304 0 64.45263 52.43407 116.88868 116.88672 116.88868 64.4264 0 116.87304-52.43605 116.87304-116.88868 0-64.4395-52.447-116.87304-116.87304-116.87304zm-34.60938 54.02343c6.03308 0 10.92383 10.50719 10.92383 23.46875 0 12.96152-4.89075 23.46875-10.92383 23.46875-6.03307 0-10.92383-10.50723-10.92383-23.46875 0-12.96156 4.89076-23.46875 10.92383-23.46875zm69.21875 0c6.02544 0 10.91016 10.50719 10.91016 23.46875 0 12.96152-4.88472 23.46875-10.91016 23.46875-6.02541 0-10.91016-10.50723-10.91016-23.46875 0-12.96156 4.88475-23.46875 10.91016-23.46875zm-98.46289 74.68555h11.57422c0 6.0812-2.27838 11.65409-5.92383 16.10742 3.93348 9.86919 27.49909 22.21289 58.18945 22.21289 30.70238 0 54.25601-12.3437 58.18946-22.21289-3.66001-4.45333-5.91016-10.02622-5.91016-16.10742h11.5625c0 8.15055 7.21187 14.7793 16.06641 14.7793v11.57617c-4.47996 0-8.67106-1.13448-12.42188-2.95703-8.48922 14.25692-34.67449 26.49805-67.48633 26.49805-32.79979 0-58.99564-12.24076-67.48632-26.49805-3.74936 1.82255-7.94339 2.95703-12.42188 2.95703v-11.57617c8.85455 0 16.06836-6.62875 16.06836-14.7793z"/></svg>